<?xml version="1.0" encoding="UTF-8"?>
<!DOCTYPE svg PUBLIC "-//W3C//DTD SVG 1.1//EN"
    "http://www.w3.org/Graphics/SVG/1.1/DTD/svg11.dtd"><svg stroke="rgb(0,0,0)" xmlns="http://www.w3.org/2000/svg" font-size="1" width="400.0000" stroke-opacity="1" xmlns:xlink="http://www.w3.org/1999/xlink" viewBox="0.0 0.0 400.0 166.66669443687505" height="166.6667" version="1.1"><defs></defs><g fill="rgb(0,0,0)" stroke="rgb(0,0,0)" stroke-linecap="butt" stroke-width="1.0327956450314846" stroke-miterlimit="10.0" fill-opacity="0.0" stroke-opacity="1.0" stroke-linejoin="miter"><path d="M 283.3336,53.2831 c -8.3333,-0.0000 -8.3333,-11.6161 -16.6666 -11.6161M 283.3336,53.2831 c -8.3333,-0.0000 -8.3333,5.0505 -16.6666 5.0505M 283.3336,53.2831 c -8.3333,-0.0000 -8.3333,21.7171 -16.6666 21.7171M 283.3336,53.2831 c 8.3333,-0.0000 8.3333,-5.5050 16.6666 -5.5050M 283.3336,83.3336 c -8.3333,-0.0000 -8.3333,8.3333 -16.6666 8.3333M 283.3336,83.3336 c 8.3333,-0.0000 8.3333,-17.7777 16.6666 -17.7777M 283.3336,83.3336 c 8.3333,-0.0000 8.3333,-0.0000 16.6666 -0.0000M 283.3336,113.3840 c -8.3333,-0.0000 -8.3333,-5.0505 -16.6666 -5.0505M 283.3336,113.3840 c -8.3333,-0.0000 -8.3333,11.6161 -16.6666 11.6161M 283.3336,113.3840 c 8.3333,-0.0000 8.3333,-12.2727 16.6666 -12.2727M 283.3336,113.3840 c 8.3333,-0.0000 8.3333,5.5050 16.6666 5.5050M 316.6669,57.0178 c -8.3333,-0.0000 -8.3333,-9.2397 -16.6666 -9.2397M 316.6669,57.0178 c -8.3333,-0.0000 -8.3333,8.5380 -16.6666 8.5380M 316.6669,57.0178 c 8.3333,-0.0000 8.3333,0.3899 16.6666 0.3899M 350.0001,57.8434 c -8.3333,-0.0000 -8.3333,-0.4357 -16.6666 -0.4357M 350.0001,57.8434 c 8.3333,-0.0000 8.3333,0.4902 16.6666 0.4902M 300.0002,118.8890 c 33.3333,-0.0000 33.3333,-27.2222 66.6665 -27.2222M 300.0002,101.1113 c 33.3333,-0.0000 33.3333,-26.1110 66.6665 -26.1110M 300.0002,83.3336 c 33.3333,-0.0000 33.3333,24.9999 66.6665 24.9999"/></g><g fill="rgb(255,255,255)" stroke="rgb(0,0,0)" stroke-linecap="butt" stroke-width="1.0327956450314846" stroke-miterlimit="10.0" fill-opacity="1.0" stroke-opacity="1.0" stroke-linejoin="miter"><path d="M 355.0001,65.3434 l -0.0000,-15.0000 h -10.0000 l -0.0000,15.0000 Z"/></g><g fill="rgb(255,255,255)" stroke="rgb(0,0,0)" stroke-linecap="butt" stroke-width="1.0327956450314846" stroke-miterlimit="10.0" fill-opacity="1.0" stroke-opacity="1.0" stroke-linejoin="miter"><path d="M 321.6669,64.5178 l -0.0000,-15.0000 h -10.0000 l -0.0000,15.0000 Z"/></g><g fill="rgb(255,255,255)" stroke="rgb(0,0,0)" stroke-linecap="butt" stroke-width="1.0327956450314846" stroke-miterlimit="10.0" fill-opacity="1.0" stroke-opacity="1.0" stroke-linejoin="miter"><path d="M 288.3336,120.8840 l -0.0000,-15.0000 h -10.0000 l -0.0000,15.0000 Z"/></g><g fill="rgb(255,255,255)" stroke="rgb(0,0,0)" stroke-linecap="butt" stroke-width="1.0327956450314846" stroke-miterlimit="10.0" fill-opacity="1.0" stroke-opacity="1.0" stroke-linejoin="miter"><path d="M 288.3336,90.8336 l -0.0000,-15.0000 h -10.0000 l -0.0000,15.0000 Z"/></g><g fill="rgb(255,255,255)" stroke="rgb(0,0,0)" stroke-linecap="butt" stroke-width="1.0327956450314846" stroke-miterlimit="10.0" fill-opacity="1.0" stroke-opacity="1.0" stroke-linejoin="miter"><path d="M 288.3336,60.7831 l -0.0000,-15.0000 h -10.0000 l -0.0000,15.0000 Z"/></g><g fill="rgb(0,0,0)" stroke="rgb(0,0,0)" stroke-linecap="butt" stroke-width="1.0327956450314846" font-size="8.333312500052083px" stroke-miterlimit="10.0" fill-opacity="1.0" stroke-opacity="1.0" stroke-linejoin="miter"><text dominant-baseline="middle" stroke="none" transform="matrix(1.0000,0.0000,0.0000,1.0000,366.6667,106.2502)" text-anchor="middle">c</text></g><g fill="rgb(0,0,0)" stroke="rgb(0,0,0)" stroke-linecap="butt" stroke-width="1.0327956450314846" font-size="8.333312500052083px" stroke-miterlimit="10.0" fill-opacity="1.0" stroke-opacity="1.0" stroke-linejoin="miter"><text dominant-baseline="middle" stroke="none" transform="matrix(1.0000,0.0000,0.0000,1.0000,366.6667,89.5836)" text-anchor="middle">e</text></g><g fill="rgb(0,0,0)" stroke="rgb(0,0,0)" stroke-linecap="butt" stroke-width="1.0327956450314846" font-size="8.333312500052083px" stroke-miterlimit="10.0" fill-opacity="1.0" stroke-opacity="1.0" stroke-linejoin="miter"><text dominant-baseline="middle" stroke="none" transform="matrix(1.0000,0.0000,0.0000,1.0000,366.6667,72.9169)" text-anchor="middle">d</text></g><g fill="rgb(0,0,0)" stroke="rgb(0,0,0)" stroke-linecap="butt" stroke-width="1.0327956450314846" font-size="8.333312500052083px" stroke-miterlimit="10.0" fill-opacity="1.0" stroke-opacity="1.0" stroke-linejoin="miter"><text dominant-baseline="middle" stroke="none" transform="matrix(1.0000,0.0000,0.0000,1.0000,366.6667,56.2503)" text-anchor="middle">g</text></g><g fill="rgb(0,0,0)" stroke="rgb(0,0,0)" stroke-linecap="butt" stroke-width="1.0327956450314846" font-size="8.333312500052083px" stroke-miterlimit="10.0" fill-opacity="1.0" stroke-opacity="1.0" stroke-linejoin="miter"><text dominant-baseline="middle" stroke="none" transform="matrix(1.0000,0.0000,0.0000,1.0000,350.0001,59.9268)" text-anchor="middle">4</text></g><g fill="rgb(0,0,0)" stroke="rgb(0,0,0)" stroke-linecap="butt" stroke-width="1.0327956450314846" font-size="8.333312500052083px" stroke-miterlimit="10.0" fill-opacity="1.0" stroke-opacity="1.0" stroke-linejoin="miter"><text dominant-baseline="middle" stroke="none" transform="matrix(1.0000,0.0000,0.0000,1.0000,333.3335,55.3244)" text-anchor="middle">f</text></g><g fill="rgb(0,0,0)" stroke="rgb(0,0,0)" stroke-linecap="butt" stroke-width="1.0327956450314846" font-size="8.333312500052083px" stroke-miterlimit="10.0" fill-opacity="1.0" stroke-opacity="1.0" stroke-linejoin="miter"><text dominant-baseline="middle" stroke="none" transform="matrix(1.0000,0.0000,0.0000,1.0000,316.6669,59.1012)" text-anchor="middle">3</text></g><g fill="rgb(0,0,0)" stroke="rgb(0,0,0)" stroke-linecap="butt" stroke-width="1.0327956450314846" font-size="8.333312500052083px" stroke-miterlimit="10.0" fill-opacity="1.0" stroke-opacity="1.0" stroke-linejoin="miter"><text dominant-baseline="middle" stroke="none" transform="matrix(1.0000,0.0000,0.0000,1.0000,300.0002,116.8057)" text-anchor="middle">e</text></g><g fill="rgb(0,0,0)" stroke="rgb(0,0,0)" stroke-linecap="butt" stroke-width="1.0327956450314846" font-size="8.333312500052083px" stroke-miterlimit="10.0" fill-opacity="1.0" stroke-opacity="1.0" stroke-linejoin="miter"><text dominant-baseline="middle" stroke="none" transform="matrix(1.0000,0.0000,0.0000,1.0000,300.0002,99.0280)" text-anchor="middle">d</text></g><g fill="rgb(0,0,0)" stroke="rgb(0,0,0)" stroke-linecap="butt" stroke-width="1.0327956450314846" font-size="8.333312500052083px" stroke-miterlimit="10.0" fill-opacity="1.0" stroke-opacity="1.0" stroke-linejoin="miter"><text dominant-baseline="middle" stroke="none" transform="matrix(1.0000,0.0000,0.0000,1.0000,266.6670,122.9168)" text-anchor="middle">x6</text></g><g fill="rgb(0,0,0)" stroke="rgb(0,0,0)" stroke-linecap="butt" stroke-width="1.0327956450314846" font-size="8.333312500052083px" stroke-miterlimit="10.0" fill-opacity="1.0" stroke-opacity="1.0" stroke-linejoin="miter"><text dominant-baseline="middle" stroke="none" transform="matrix(1.0000,0.0000,0.0000,1.0000,266.6670,106.2502)" text-anchor="middle">x5</text></g><g fill="rgb(0,0,0)" stroke="rgb(0,0,0)" stroke-linecap="butt" stroke-width="1.0327956450314846" font-size="8.333312500052083px" stroke-miterlimit="10.0" fill-opacity="1.0" stroke-opacity="1.0" stroke-linejoin="miter"><text dominant-baseline="middle" stroke="none" transform="matrix(1.0000,0.0000,0.0000,1.0000,283.3336,115.4673)" text-anchor="middle">2</text></g><g fill="rgb(0,0,0)" stroke="rgb(0,0,0)" stroke-linecap="butt" stroke-width="1.0327956450314846" font-size="8.333312500052083px" stroke-miterlimit="10.0" fill-opacity="1.0" stroke-opacity="1.0" stroke-linejoin="miter"><text dominant-baseline="middle" stroke="none" transform="matrix(1.0000,0.0000,0.0000,1.0000,300.0002,81.2502)" text-anchor="middle">c</text></g><g fill="rgb(0,0,0)" stroke="rgb(0,0,0)" stroke-linecap="butt" stroke-width="1.0327956450314846" font-size="8.333312500052083px" stroke-miterlimit="10.0" fill-opacity="1.0" stroke-opacity="1.0" stroke-linejoin="miter"><text dominant-baseline="middle" stroke="none" transform="matrix(1.0000,0.0000,0.0000,1.0000,300.0002,63.4725)" text-anchor="middle">b</text></g><g fill="rgb(0,0,0)" stroke="rgb(0,0,0)" stroke-linecap="butt" stroke-width="1.0327956450314846" font-size="8.333312500052083px" stroke-miterlimit="10.0" fill-opacity="1.0" stroke-opacity="1.0" stroke-linejoin="miter"><text dominant-baseline="middle" stroke="none" transform="matrix(1.0000,0.0000,0.0000,1.0000,266.6670,89.5836)" text-anchor="middle">x4</text></g><g fill="rgb(0,0,0)" stroke="rgb(0,0,0)" stroke-linecap="butt" stroke-width="1.0327956450314846" font-size="8.333312500052083px" stroke-miterlimit="10.0" fill-opacity="1.0" stroke-opacity="1.0" stroke-linejoin="miter"><text dominant-baseline="middle" stroke="none" transform="matrix(1.0000,0.0000,0.0000,1.0000,283.3336,85.4169)" text-anchor="middle">1</text></g><g fill="rgb(0,0,0)" stroke="rgb(0,0,0)" stroke-linecap="butt" stroke-width="1.0327956450314846" font-size="8.333312500052083px" stroke-miterlimit="10.0" fill-opacity="1.0" stroke-opacity="1.0" stroke-linejoin="miter"><text dominant-baseline="middle" stroke="none" transform="matrix(1.0000,0.0000,0.0000,1.0000,300.0002,45.6948)" text-anchor="middle">a</text></g><g fill="rgb(0,0,0)" stroke="rgb(0,0,0)" stroke-linecap="butt" stroke-width="1.0327956450314846" font-size="8.333312500052083px" stroke-miterlimit="10.0" fill-opacity="1.0" stroke-opacity="1.0" stroke-linejoin="miter"><text dominant-baseline="middle" stroke="none" transform="matrix(1.0000,0.0000,0.0000,1.0000,266.6670,72.9169)" text-anchor="middle">x3</text></g><g fill="rgb(0,0,0)" stroke="rgb(0,0,0)" stroke-linecap="butt" stroke-width="1.0327956450314846" font-size="8.333312500052083px" stroke-miterlimit="10.0" fill-opacity="1.0" stroke-opacity="1.0" stroke-linejoin="miter"><text dominant-baseline="middle" stroke="none" transform="matrix(1.0000,0.0000,0.0000,1.0000,266.6670,56.2503)" text-anchor="middle">x2</text></g><g fill="rgb(0,0,0)" stroke="rgb(0,0,0)" stroke-linecap="butt" stroke-width="1.0327956450314846" font-size="8.333312500052083px" stroke-miterlimit="10.0" fill-opacity="1.0" stroke-opacity="1.0" stroke-linejoin="miter"><text dominant-baseline="middle" stroke="none" transform="matrix(1.0000,0.0000,0.0000,1.0000,266.6670,39.5837)" text-anchor="middle">x1</text></g><g fill="rgb(0,0,0)" stroke="rgb(0,0,0)" stroke-linecap="butt" stroke-width="1.0327956450314846" font-size="8.333312500052083px" stroke-miterlimit="10.0" fill-opacity="1.0" stroke-opacity="1.0" stroke-linejoin="miter"><text dominant-baseline="middle" stroke="none" transform="matrix(1.0000,0.0000,0.0000,1.0000,283.3336,55.3665)" text-anchor="middle">0</text></g><g fill="rgb(0,0,0)" stroke="rgb(0,0,0)" stroke-linecap="butt" stroke-width="1.0327956450314846" stroke-miterlimit="10.0" fill-opacity="0.0" stroke-opacity="1.0" stroke-linejoin="miter"><path d="M 166.6672,53.2831 c -8.3333,-0.0000 -8.3333,-11.6161 -16.6666 -11.6161M 166.6672,53.2831 c -8.3333,-0.0000 -8.3333,5.0505 -16.6666 5.0505M 166.6672,53.2831 c -8.3333,-0.0000 -8.3333,21.7171 -16.6666 21.7171M 166.6672,53.2831 c 8.3333,-0.0000 8.3333,-5.5050 16.6666 -5.5050M 166.6672,83.3336 c -8.3333,-0.0000 -8.3333,8.3333 -16.6666 8.3333M 166.6672,83.3336 c 8.3333,-0.0000 8.3333,-17.7777 16.6666 -17.7777M 166.6672,83.3336 c 8.3333,-0.0000 8.3333,-0.0000 16.6666 -0.0000M 166.6672,113.3840 c -8.3333,-0.0000 -8.3333,-5.0505 -16.6666 -5.0505M 166.6672,113.3840 c -8.3333,-0.0000 -8.3333,11.6161 -16.6666 11.6161M 166.6672,113.3840 c 8.3333,-0.0000 8.3333,-12.2727 16.6666 -12.2727M 166.6672,113.3840 c 8.3333,-0.0000 8.3333,5.5050 16.6666 5.5050M 200.0005,57.0178 c -8.3333,-0.0000 -8.3333,-9.2397 -16.6666 -9.2397M 200.0005,57.0178 c -8.3333,-0.0000 -8.3333,8.5380 -16.6666 8.5380M 200.0005,57.0178 c 8.3333,-0.0000 8.3333,0.3899 16.6666 0.3899M 233.3337,57.8434 c -8.3333,-0.0000 -8.3333,-0.4357 -16.6666 -0.4357M 233.3337,57.8434 c 8.3333,-0.0000 8.3333,0.4902 16.6666 0.4902M 183.3339,118.8890 c 33.3333,-0.0000 33.3333,-27.2222 66.6665 -27.2222M 183.3339,101.1113 c 33.3333,-0.0000 33.3333,-26.1110 66.6665 -26.1110M 183.3339,83.3336 c 33.3333,-0.0000 33.3333,24.9999 66.6665 24.9999"/></g><g fill="rgb(0,0,0)" stroke="rgb(0,0,0)" stroke-linecap="butt" stroke-width="1.0327956450314846" stroke-miterlimit="10.0" fill-opacity="0.0" stroke-opacity="1.0" stroke-linejoin="miter"><path d="M 33.3336,83.3328 l -0.0003,0.0007 M 33.3336,33.3333 l -0.0003,0.0004 M 66.6668,38.8892 l -0.0003,0.0001 M 66.6668,56.6668 l -0.0003,0.0005 M 49.9999,53.2833 c -2.0833,0.6536 -3.6458,0.3511 -4.9479 -0.4938c -1.3021,-0.9244 -2.3437,-2.4091 -3.3854 -3.9766c -1.0417,-1.6501 -2.0833,-3.3823 -3.3854 -4.7160c -1.3021,-1.4103 -2.8646,-2.4018 -4.9479 -2.4298M 49.9999,53.2833 c -8.3333,2.5746 -8.3333,2.5746 -16.6666 5.0504M 49.9999,53.2833 c -2.0833,0.6536 -3.6458,1.9277 -4.9479 3.5765c -1.3021,1.7232 -2.3437,3.8433 -3.3854 6.0432c -1.0417,2.2793 -2.0833,4.6377 -3.3854 6.7499c -1.3021,2.1843 -2.8646,4.0986 -4.9479 5.3474M 49.9999,53.2833 c 8.3333,-2.6875 8.3333,-2.6875 16.6666 -5.5050M 33.3336,100.0000 l -0.0003,0.0002 M 33.3336,83.3332 l -0.0003,0.0004 M 66.6668,56.6670 l -0.0003,0.0006 M 66.6668,92.2221 l -0.0003,0.0004 M 49.9999,83.3337 c -8.3333,4.2270 -8.3333,4.2270 -16.6666 8.3332M 49.9999,83.3337 c 4.1667,-2.1640 6.2500,-5.0933 8.3333 -8.1844c 2.0833,-3.2554 4.1667,-6.6781 8.3333 -9.5930M 49.9999,83.3337 c 4.1667,-2.1640 6.2500,-1.4261 8.3333 -0.5456c 2.0833,1.0252 4.1667,2.1970 8.3333 0.5457M 33.3336,133.3331 l -0.0003,0.0004 M 33.3336,99.9998 l -0.0003,0.0004 M 66.6668,92.2224 l -0.0003,0.0004 M 66.6668,127.7775 l -0.0003,0.0004 M 49.9999,113.3841 c -4.1667,0.8291 -6.2500,-0.8801 -8.3333 -2.5747c -2.0833,-1.6806 -4.1667,-3.3476 -8.3333 -2.4759M 49.9999,113.3841 c -4.1667,0.8291 -6.2500,3.3629 -8.3333 5.8794c -2.0833,2.4997 -4.1667,4.9831 -8.3333 5.7367M 49.9999,113.3841 c 4.1667,-0.8354 6.2500,-3.4287 8.3333 -6.0425c 2.0833,-2.6349 4.1667,-5.2917 8.3333 -6.2300M 49.9999,113.3841 c 4.1667,-0.8354 6.2500,0.9177 8.3333 2.6876c 2.0833,1.7875 4.1667,3.5932 8.3333 2.8175M 66.6672,74.4443 l -0.0003,0.0004 M 66.6672,38.8889 l -0.0003,0.0003 M 100.0004,44.4448 l -0.0003,0.0002 M 100.0004,70.3704 l -0.0003,0.0003 M 83.3335,57.0179 c -4.1667,-0.0912 -6.2500,-2.1679 -8.3333 -4.3199c -2.0833,-2.2274 -4.1667,-4.5305 -8.3333 -4.9199M 83.3335,57.0179 c -4.1667,-0.0912 -6.2500,1.8962 -8.3333 3.9600c -2.0833,2.1403 -4.1667,4.3573 -8.3333 4.5779M 83.3335,57.0179 c 8.3333,0.1897 8.3333,0.1897 16.6666 0.3899M 100.0007,70.3703 l -0.0003,0.0003 M 100.0007,44.4446 l -0.0003,0.0002 M 133.3340,50.0003 l -0.0003,0.0001 M 133.3340,66.6668 l -0.0003,0.0002 M 116.6670,57.8435 c -8.3333,-0.2241 -8.3333,-0.2241 -16.6666 -0.4358M 116.6670,57.8435 c 8.3333,0.2377 8.3333,0.2377 16.6666 0.4902M 66.6675,127.7773 l -0.0007,0.0006 M 66.6675,74.4441 l -0.0007,0.0006 M 133.3340,66.6669 l -0.0007,0.0006 M 133.3340,116.6663 l -0.0007,0.0006 M 66.6668,118.8890 c 8.3333,-1.3319 14.5833,-3.4272 19.7916 -5.8922c 5.2083,-2.4485 9.3750,-5.2625 13.5416 -8.0582c 4.1667,-2.7767 8.3333,-5.5334 13.5416 -7.8845c 5.2083,-2.3288 11.4583,-4.2505 19.7916 -5.3869M 66.6668,101.1113 c 8.3333,-1.2179 14.5833,-3.2239 19.7916 -5.6116c 5.2083,-2.3687 9.3750,-5.1169 13.5416 -7.8449c 4.1667,-2.7071 8.3333,-5.3923 13.5416 -7.6510c 5.2083,-2.2330 11.4583,-4.0350 19.7916 -5.0030M 66.6668,83.3336 c 8.3333,-1.1039 14.5833,0.2747 19.7916 2.8708c 5.2083,2.5723 9.3750,6.3474 13.5416 10.0923c 4.1667,3.7135 8.3333,7.3942 13.5416 9.8154c 5.2083,2.3888 11.4583,3.5263 19.7916 2.2216"/></g></svg>