<?xml version="1.0" encoding="UTF-8"?>
<!DOCTYPE svg PUBLIC "-//W3C//DTD SVG 1.1//EN"
    "http://www.w3.org/Graphics/SVG/1.1/DTD/svg11.dtd"><svg viewBox="0.0 0.0 400.0 400.0" xmlns:xlink="http://www.w3.org/1999/xlink" xmlns="http://www.w3.org/2000/svg" width="400.0000" stroke="rgb(0,0,0)" font-size="1" stroke-opacity="1" height="400.0000" version="1.1"><defs></defs><g stroke-width="1.6" stroke-linejoin="miter" fill-opacity="0.0" stroke="rgb(0,0,0)" stroke-opacity="1.0" fill="rgb(0,0,0)" stroke-linecap="butt" stroke-miterlimit="10.0"><path d="M 200.0000,233.3333 l -0.0000,-133.3333 M 200.0000,100.0000 h -100.0000 M 100.0000,100.0000 l -0.0000,100.0000 M 100.0000,200.0000 l 100.0000,33.3333 M 150.0000,160.0000 l -50.0000,-10.0000 M 150.0000,160.0000 l 50.0000,40.0000 M 150.0000,160.0000 l 50.0000,-26.6667 M 200.0000,300.0000 l -0.0000,-66.6667 M 200.0000,233.3333 l -100.0000,-33.3333 M 100.0000,200.0000 l -0.0000,100.0000 M 100.0000,300.0000 h 100.0000 M 150.0000,260.0000 l -50.0000,-10.0000 M 150.0000,260.0000 l 50.0000,6.6667 M 300.0000,200.0000 v -100.0000 M 300.0000,100.0000 h -100.0000 M 200.0000,100.0000 v 66.6667 M 200.0000,166.6667 l 100.0000,33.3333 M 250.0000,140.0000 l -50.0000,-6.6667 M 250.0000,140.0000 l 50.0000,10.0000 M 300.0000,300.0000 v -100.0000 M 300.0000,200.0000 l -100.0000,-33.3333 M 200.0000,166.6667 v 133.3333 M 200.0000,300.0000 h 100.0000 M 250.0000,240.0000 l -50.0000,26.6667 M 250.0000,240.0000 l -50.0000,-40.0000 M 250.0000,240.0000 l 50.0000,10.0000 "/></g><g stroke-width="1.6" stroke-linejoin="miter" fill-opacity="1.0" stroke="rgb(0,0,0)" stroke-opacity="1.0" fill="rgb(255,255,255)" stroke-linecap="butt" stroke-miterlimit="10.0"><path d="M 262.5000,258.7500 l -0.0000,-37.5000 h -25.0000 l -0.0000,37.5000 Z"/></g><g stroke-width="1.6" stroke-linejoin="miter" fill-opacity="1.0" stroke="rgb(0,0,0)" font-size="25.0px" stroke-opacity="1.0" fill="rgb(0,0,0)" stroke-linecap="butt" stroke-miterlimit="10.0"><text transform="matrix(1.0000,0.0000,0.0000,1.0000,250.0000,246.2500)" text-anchor="middle" stroke="none" dominant-baseline="middle">4</text></g><g stroke-width="1.6" stroke-linejoin="miter" fill-opacity="1.0" stroke="rgb(0,0,0)" stroke-opacity="1.0" fill="rgb(255,255,255)" stroke-linecap="butt" stroke-miterlimit="10.0"><path d="M 262.5000,158.7500 l -0.0000,-37.5000 h -25.0000 l -0.0000,37.5000 Z"/></g><g stroke-width="1.6" stroke-linejoin="miter" fill-opacity="1.0" stroke="rgb(0,0,0)" font-size="25.0px" stroke-opacity="1.0" fill="rgb(0,0,0)" stroke-linecap="butt" stroke-miterlimit="10.0"><text transform="matrix(1.0000,0.0000,0.0000,1.0000,250.0000,146.2500)" text-anchor="middle" stroke="none" dominant-baseline="middle">3</text></g><g stroke-width="1.6" stroke-linejoin="miter" fill-opacity="1.0" stroke="rgb(0,0,0)" stroke-opacity="1.0" fill="rgb(255,255,255)" stroke-linecap="butt" stroke-miterlimit="10.0"><path d="M 162.5000,278.7500 l -0.0000,-37.5000 h -25.0000 l -0.0000,37.5000 Z"/></g><g stroke-width="1.6" stroke-linejoin="miter" fill-opacity="1.0" stroke="rgb(0,0,0)" font-size="25.0px" stroke-opacity="1.0" fill="rgb(0,0,0)" stroke-linecap="butt" stroke-miterlimit="10.0"><text transform="matrix(1.0000,0.0000,0.0000,1.0000,150.0000,266.2500)" text-anchor="middle" stroke="none" dominant-baseline="middle">2</text></g><g stroke-width="1.6" stroke-linejoin="miter" fill-opacity="1.0" stroke="rgb(0,0,0)" stroke-opacity="1.0" fill="rgb(255,255,255)" stroke-linecap="butt" stroke-miterlimit="10.0"><path d="M 162.5000,178.7500 l -0.0000,-37.5000 h -25.0000 l -0.0000,37.5000 Z"/></g><g stroke-width="1.6" stroke-linejoin="miter" fill-opacity="1.0" stroke="rgb(0,0,0)" font-size="25.0px" stroke-opacity="1.0" fill="rgb(0,0,0)" stroke-linecap="butt" stroke-miterlimit="10.0"><text transform="matrix(1.0000,0.0000,0.0000,1.0000,150.0000,166.2500)" text-anchor="middle" stroke="none" dominant-baseline="middle">1</text></g></svg>