<?xml version="1.0" encoding="UTF-8"?>
<!DOCTYPE svg PUBLIC "-//W3C//DTD SVG 1.1//EN"
    "http://www.w3.org/Graphics/SVG/1.1/DTD/svg11.dtd"><svg stroke="rgb(0,0,0)" xmlns="http://www.w3.org/2000/svg" font-size="1" width="400.0000" stroke-opacity="1" xmlns:xlink="http://www.w3.org/1999/xlink" viewBox="0.0 0.0 400.0 235.2939146453993" height="235.2939" version="1.1"><defs></defs><g fill="rgb(0,0,0)" stroke="rgb(0,0,0)" stroke-linecap="butt" stroke-width="1.227143452792116" stroke-miterlimit="10.0" fill-opacity="0.0" stroke-opacity="1.0" stroke-linejoin="miter"><path d="M 211.7644,117.6462 l -0.0005,0.0011 M 211.7644,47.0587 l -0.0005,0.0006 M 258.8231,54.9021 l -0.0005,0.0002 M 258.8231,80.0001 l -0.0005,0.0007 M 235.2933,75.2233 c -2.9412,0.9228 -5.1470,0.4957 -6.9853 -0.6972c -1.8382,-1.3051 -3.3088,-3.4010 -4.7794 -5.6140c -1.4706,-2.3295 -2.9412,-4.7750 -4.7794 -6.6578c -1.8382,-1.9910 -4.0441,-3.3907 -6.9853 -3.4303M 235.2933,75.2233 c -11.7647,3.6348 -11.7647,3.6348 -23.5293 7.1300M 235.2933,75.2233 c -2.9412,0.9228 -5.1470,2.7214 -6.9853 5.0492c -1.8382,2.4328 -3.3088,5.4258 -4.7794 8.5315c -1.4706,3.2179 -2.9412,6.5474 -4.7794 9.5293c -1.8382,3.0837 -4.0441,5.7863 -6.9853 7.5493M 235.2933,75.2233 c 11.7647,-3.7942 11.7647,-3.7942 23.5293 -7.7717M 211.7644,141.1763 l -0.0005,0.0003 M 211.7644,117.6467 l -0.0005,0.0006 M 258.8231,79.9998 l -0.0005,0.0009 M 258.8231,130.1957 l -0.0005,0.0006 M 235.2933,117.6474 c -11.7647,5.9675 -11.7647,5.9675 -23.5293 11.7645M 235.2933,117.6474 c 5.8823,-3.0551 8.8235,-7.1907 11.7647 -11.5545c 2.9412,-4.5960 5.8823,-9.4281 11.7647 -13.5433M 235.2933,117.6474 c 5.8823,-3.0551 8.8235,-2.0134 11.7647 -0.7703c 2.9412,1.4473 5.8823,3.1017 11.7647 0.7703M 211.7644,188.2347 l -0.0005,0.0005 M 211.7644,141.1760 l -0.0005,0.0006 M 258.8231,130.1957 l -0.0005,0.0006 M 258.8231,180.3916 l -0.0005,0.0006 M 235.2933,160.0714 c -5.8823,1.1705 -8.8235,-1.2424 -11.7647 -3.6348c -2.9412,-2.3726 -5.8823,-4.7260 -11.7647 -3.4953M 235.2933,160.0714 c -5.8823,1.1705 -8.8235,4.7477 -11.7647 8.3003c -2.9412,3.5290 -5.8823,7.0350 -11.7647 8.0988M 235.2933,160.0714 c 5.8823,-1.1794 8.8235,-4.8406 11.7647 -8.5306c 2.9412,-3.7199 5.8823,-7.4707 11.7647 -8.7955M 235.2933,160.0714 c 5.8823,-1.1794 8.8235,1.2955 11.7647 3.7943c 2.9412,2.5235 5.8823,5.0728 11.7647 3.9776M 258.8236,105.0977 l -0.0005,0.0006 M 258.8236,54.9020 l -0.0005,0.0004 M 305.8822,62.7451 l -0.0005,0.0003 M 305.8822,99.3463 l -0.0005,0.0004 M 282.3524,80.4957 c -5.8823,-0.1287 -8.8235,-3.0606 -11.7647 -6.0987c -2.9412,-3.1446 -5.8823,-6.3959 -11.7647 -6.9457M 282.3524,80.4957 c -5.8823,-0.1287 -8.8235,2.6771 -11.7647 5.5906c -2.9412,3.0216 -5.8823,6.1515 -11.7647 6.4630M 282.3524,80.4957 c 11.7647,0.2678 11.7647,0.2678 23.5293 0.5504M 305.8827,99.3463 l -0.0005,0.0004 M 305.8827,62.7452 l -0.0005,0.0003 M 352.9413,70.5884 l -0.0005,0.0002 M 352.9413,94.1177 l -0.0005,0.0003 M 329.4115,81.6612 c -11.7647,-0.3164 -11.7647,-0.3164 -23.5293 -0.6151M 329.4115,81.6612 c 11.7647,0.3355 11.7647,0.3355 23.5293 0.6920M 258.8240,180.3912 l -0.0009,0.0009 M 258.8240,105.0974 l -0.0009,0.0009 M 352.9413,94.1172 l -0.0009,0.0008 M 352.9413,164.7052 l -0.0009,0.0009 M 258.8231,167.8432 c 11.7647,-1.8803 20.5882,-4.8385 27.9411 -8.3184c 7.3529,-3.4568 13.2352,-7.4295 19.1176 -11.3764c 5.8823,-3.9200 11.7647,-7.8120 19.1176 -11.1312c 7.3529,-3.2878 16.1764,-6.0009 27.9411 -7.6051M 258.8231,142.7452 c 11.7647,-1.7194 20.5882,-4.5514 27.9411 -7.9224c 7.3529,-3.3441 13.2352,-7.2239 19.1176 -11.0753c 5.8823,-3.8218 11.7647,-7.6128 19.1176 -10.8016c 7.3529,-3.1526 16.1764,-5.6966 27.9411 -7.0632M 258.8231,117.6473 c 11.7647,-1.5586 20.5882,0.3877 27.9411 4.0527c 7.3529,3.6315 13.2352,8.9610 19.1176 14.2480c 5.8823,5.2426 11.7647,10.4388 19.1176 13.8571c 7.3529,3.3724 16.1764,4.9783 27.9411 3.1364"/></g><g fill="rgb(0,0,0)" stroke="rgb(0,0,0)" stroke-linecap="butt" stroke-width="1.227143452792116" stroke-miterlimit="10.0" fill-opacity="0.0" stroke-opacity="1.0" stroke-linejoin="miter"><path d="M 70.5880,75.2232 c -11.7647,-0.0000 -11.7647,-16.3992 -23.5293 -16.3992M 70.5880,75.2232 c -11.7647,-0.0000 -11.7647,7.1301 -23.5293 7.1301M 70.5880,75.2232 c -11.7647,-0.0000 -11.7647,30.6594 -23.5293 30.6594M 70.5880,75.2232 c 11.7647,-0.0000 11.7647,-7.7718 23.5293 -7.7718M 70.5880,117.6473 c -11.7647,-0.0000 -11.7647,11.7647 -23.5293 11.7647M 70.5880,117.6473 c 11.7647,-0.0000 11.7647,-25.0980 23.5293 -25.0980M 70.5880,117.6473 c 11.7647,-0.0000 11.7647,-0.0000 23.5293 -0.0000M 70.5880,160.0714 c -11.7647,-0.0000 -11.7647,-7.1301 -23.5293 -7.1301M 70.5880,160.0714 c -11.7647,-0.0000 -11.7647,16.3992 -23.5293 16.3992M 70.5880,160.0714 c 11.7647,-0.0000 11.7647,-17.3261 23.5293 -17.3261M 70.5880,160.0714 c 11.7647,-0.0000 11.7647,7.7718 23.5293 7.7718M 117.6466,80.4957 c -11.7647,-0.0000 -11.7647,-13.0443 -23.5293 -13.0443M 117.6466,80.4957 c -11.7647,-0.0000 -11.7647,12.0536 -23.5293 12.0536M 117.6466,80.4957 c 11.7647,-0.0000 11.7647,0.5504 23.5293 0.5504M 164.7053,81.6612 c -11.7647,-0.0000 -11.7647,-0.6151 -23.5293 -0.6151M 164.7053,81.6612 c 11.7647,-0.0000 11.7647,0.6920 23.5293 0.6920M 94.1173,167.8432 c 47.0587,-0.0000 47.0587,-38.4312 94.1173 -38.4312M 94.1173,142.7452 c 47.0587,-0.0000 47.0587,-36.8626 94.1173 -36.8626M 94.1173,117.6473 c 47.0587,-0.0000 47.0587,35.2940 94.1173 35.2940"/></g></svg>