<?xml version="1.0" encoding="UTF-8"?>
<!DOCTYPE svg PUBLIC "-//W3C//DTD SVG 1.1//EN"
    "http://www.w3.org/Graphics/SVG/1.1/DTD/svg11.dtd"><svg stroke="rgb(0,0,0)" xmlns="http://www.w3.org/2000/svg" font-size="1" width="400.0000" stroke-opacity="1" xmlns:xlink="http://www.w3.org/1999/xlink" viewBox="0.0 0.0 400.0 448.00000000000006" height="448.0000" version="1.1"><defs></defs><g fill="rgb(0,0,0)" stroke="rgb(0,0,0)" stroke-linecap="butt" stroke-width="1.6932808390813383" stroke-miterlimit="10.0" fill-opacity="0.0" stroke-opacity="1.0" stroke-linejoin="miter"><path d="M 140.0000,162.7500 c -30.0000,-0.0000 -30.0000,109.2500 -60.0000 109.2500M 140.0000,162.7500 c -30.0000,-0.0000 -30.0000,77.2500 -60.0000 77.2500M 140.0000,162.7500 c -30.0000,-0.0000 -30.0000,45.2500 -60.0000 45.2500M 140.0000,162.7500 c -30.0000,-0.0000 -30.0000,13.2500 -60.0000 13.2500M 140.0000,162.7500 c -30.0000,-0.0000 -30.0000,-18.7500 -60.0000 -18.7500M 140.0000,162.7500 c -30.0000,-0.0000 -30.0000,-50.7500 -60.0000 -50.7500M 140.0000,162.7500 c -30.0000,-0.0000 -30.0000,-82.7500 -60.0000 -82.7500M 140.0000,162.7500 c 30.0000,-0.0000 30.0000,1.2500 60.0000 1.2500M 140.0000,162.7500 c 30.0000,-0.0000 30.0000,-38.7500 60.0000 -38.7500M 140.0000,267.7500 c -30.0000,-0.0000 -30.0000,36.2500 -60.0000 36.2500M 140.0000,267.7500 c 30.0000,-0.0000 30.0000,-23.7500 60.0000 -23.7500M 140.0000,267.7500 c 30.0000,-0.0000 30.0000,-63.7500 60.0000 -63.7500M 140.0000,329.0000 c -30.0000,-0.0000 -30.0000,39.0000 -60.0000 39.0000M 140.0000,329.0000 c -30.0000,-0.0000 -30.0000,7.0000 -60.0000 7.0000M 140.0000,329.0000 c 30.0000,-0.0000 30.0000,-5.0000 60.0000 -5.0000M 140.0000,329.0000 c 30.0000,-0.0000 30.0000,-45.0000 60.0000 -45.0000M 260.0000,142.1818 c -30.0000,-0.0000 -30.0000,-18.1818 -60.0000 -18.1818M 260.0000,142.1818 c 30.0000,-0.0000 30.0000,17.8182 60.0000 17.8182M 260.0000,187.6364 c -30.0000,-0.0000 -30.0000,16.3636 -60.0000 16.3636M 260.0000,187.6364 c -30.0000,-0.0000 -30.0000,-23.6364 -60.0000 -23.6364M 260.0000,187.6364 c 30.0000,-0.0000 30.0000,4.3636 60.0000 4.3636M 200.0000,324.0000 c 60.0000,-0.0000 60.0000,-68.0000 120.0000 -68.0000M 200.0000,284.0000 c 60.0000,-0.0000 60.0000,-60.0000 120.0000 -60.0000M 200.0000,244.0000 c 60.0000,-0.0000 60.0000,44.0000 120.0000 44.0000"/></g><g fill="rgb(255,255,255)" stroke="rgb(0,0,0)" stroke-linecap="butt" stroke-width="1.6932808390813383" stroke-miterlimit="10.0" fill-opacity="1.0" stroke-opacity="1.0" stroke-linejoin="miter"><path d="M 272.0000,205.6364 l -0.0000,-36.0000 h -24.0000 l -0.0000,36.0000 Z"/></g><g fill="rgb(255,255,255)" stroke="rgb(0,0,0)" stroke-linecap="butt" stroke-width="1.6932808390813383" stroke-miterlimit="10.0" fill-opacity="1.0" stroke-opacity="1.0" stroke-linejoin="miter"><path d="M 272.0000,160.1818 l -0.0000,-36.0000 h -24.0000 l -0.0000,36.0000 Z"/></g><g fill="rgb(255,255,255)" stroke="rgb(0,0,0)" stroke-linecap="butt" stroke-width="1.6932808390813383" stroke-miterlimit="10.0" fill-opacity="1.0" stroke-opacity="1.0" stroke-linejoin="miter"><path d="M 152.0000,347.0000 l -0.0000,-36.0000 h -24.0000 l -0.0000,36.0000 Z"/></g><g fill="rgb(255,255,255)" stroke="rgb(0,0,0)" stroke-linecap="butt" stroke-width="1.6932808390813383" stroke-miterlimit="10.0" fill-opacity="1.0" stroke-opacity="1.0" stroke-linejoin="miter"><path d="M 152.0000,285.7500 l -0.0000,-36.0000 h -24.0000 l -0.0000,36.0000 Z"/></g><g fill="rgb(255,255,255)" stroke="rgb(0,0,0)" stroke-linecap="butt" stroke-width="1.6932808390813383" stroke-miterlimit="10.0" fill-opacity="1.0" stroke-opacity="1.0" stroke-linejoin="miter"><path d="M 152.0000,180.7500 l -0.0000,-36.0000 h -24.0000 l -0.0000,36.0000 Z"/></g><g fill="rgb(0,0,0)" stroke="rgb(0,0,0)" stroke-linecap="butt" stroke-width="1.6932808390813383" font-size="20.0px" stroke-miterlimit="10.0" fill-opacity="1.0" stroke-opacity="1.0" stroke-linejoin="miter"><text dominant-baseline="middle" stroke="none" transform="matrix(1.0000,0.0000,0.0000,1.0000,260.0000,274.4545)" text-anchor="middle"></text></g><g fill="rgb(0,0,0)" stroke="rgb(0,0,0)" stroke-linecap="butt" stroke-width="1.6932808390813383" font-size="20.0px" stroke-miterlimit="10.0" fill-opacity="1.0" stroke-opacity="1.0" stroke-linejoin="miter"><text dominant-baseline="middle" stroke="none" transform="matrix(1.0000,0.0000,0.0000,1.0000,260.0000,192.6364)" text-anchor="middle">4</text></g><g fill="rgb(0,0,0)" stroke="rgb(0,0,0)" stroke-linecap="butt" stroke-width="1.6932808390813383" font-size="20.0px" stroke-miterlimit="10.0" fill-opacity="1.0" stroke-opacity="1.0" stroke-linejoin="miter"><text dominant-baseline="middle" stroke="none" transform="matrix(1.0000,0.0000,0.0000,1.0000,260.0000,147.1818)" text-anchor="middle">3</text></g><g fill="rgb(0,0,0)" stroke="rgb(0,0,0)" stroke-linecap="butt" stroke-width="1.6932808390813383" font-size="20.0px" stroke-miterlimit="10.0" fill-opacity="1.0" stroke-opacity="1.0" stroke-linejoin="miter"><text dominant-baseline="middle" stroke="none" transform="matrix(1.0000,0.0000,0.0000,1.0000,140.0000,334.0000)" text-anchor="middle">2</text></g><g fill="rgb(0,0,0)" stroke="rgb(0,0,0)" stroke-linecap="butt" stroke-width="1.6932808390813383" font-size="20.0px" stroke-miterlimit="10.0" fill-opacity="1.0" stroke-opacity="1.0" stroke-linejoin="miter"><text dominant-baseline="middle" stroke="none" transform="matrix(1.0000,0.0000,0.0000,1.0000,140.0000,272.7500)" text-anchor="middle">1</text></g><g fill="rgb(0,0,0)" stroke="rgb(0,0,0)" stroke-linecap="butt" stroke-width="1.6932808390813383" font-size="20.0px" stroke-miterlimit="10.0" fill-opacity="1.0" stroke-opacity="1.0" stroke-linejoin="miter"><text dominant-baseline="middle" stroke="none" transform="matrix(1.0000,0.0000,0.0000,1.0000,140.0000,167.7500)" text-anchor="middle">0</text></g></svg>