<?xml version="1.0" encoding="UTF-8"?>
<!DOCTYPE svg PUBLIC "-//W3C//DTD SVG 1.1//EN"
    "http://www.w3.org/Graphics/SVG/1.1/DTD/svg11.dtd"><svg xmlns="http://www.w3.org/2000/svg" height="448.8998" stroke-opacity="1" viewBox="0.0 0.0 400.0 448.8997555012224" font-size="1" width="400.0000" xmlns:xlink="http://www.w3.org/1999/xlink" stroke="rgb(0,0,0)" version="1.1"><defs></defs><g stroke-linejoin="miter" stroke-opacity="1.0" fill-opacity="0.0" stroke="rgb(0,0,0)" stroke-width="1.6949803642543544" fill="rgb(0,0,0)" stroke-linecap="butt" stroke-miterlimit="10.0"><path d="M 223.9609,242.2738 v -43.9609 h -39.1198 v 43.9609 ZM 243.5208,264.8411 v -87.6284 l -39.1198,-1.1736 l -39.1198,1.1736 v 87.6284 ZM 263.0807,287.6039 v -130.7090 l -58.6797,-2.8606 l -58.6797,2.8606 l -0.0000,130.7090 l 58.6797,-1.5403 ZM 282.6406,310.4156 v -172.9095 l -78.2396,-5.4768 l -78.2396,5.4768 l -0.0000,172.9095 l 78.2396,-2.3472 ZM 302.2005,333.1296 v -213.9364 l -48.8998,-6.8765 l -48.8998,-2.2922 l -48.8998,2.2922 l -48.8998,6.8765 l -0.0000,213.9364 l 97.7995,-3.0562 ZM 321.7604,355.5990 l -0.0000,-253.4963 l -58.6797,-10.5623 l -58.6797,-3.5208 l -58.6797,3.5208 l -58.6797,10.5623 l -0.0000,253.4963 l 117.3594,-3.5208 ZM 341.3203,377.6773 l -0.0000,-291.2958 l -68.4597,-15.2751 l -68.4597,-5.0917 l -68.4597,5.0917 l -68.4597,15.2751 l -0.0000,291.2958 l 136.9193,-3.5941 ZM 360.8802,399.2176 l -0.0000,-327.0416 l -78.2396,-21.1247 l -78.2396,-7.0416 l -78.2396,7.0416 l -78.2396,21.1247 l -0.0000,327.0416 ZM 380.4401,420.0733 l -0.0000,-360.4401 l -88.0196,-28.2213 l -88.0196,-9.4071 l -88.0196,9.4071 l -88.0196,28.2213 l -0.0000,360.4401 ZM 400.0000,440.0978 l -0.0000,-391.1980 l -97.7995,-36.6748 l -97.7995,-12.2249 l -97.7995,12.2249 l -97.7995,36.6748 l -0.0000,391.1980 Z"/></g><g stroke-linejoin="miter" stroke-opacity="1.0" fill-opacity="1.0" stroke="rgb(0,0,0)" stroke-width="0.0" fill="rgb(255,0,0)" stroke-linecap="butt" stroke-miterlimit="10.0"><path d="M 17.6039,440.0978 c 0.0000,-4.8612 -3.9408,-8.8020 -8.8020 -8.8020c -4.8612,-0.0000 -8.8020,3.9408 -8.8020 8.8020c -0.0000,4.8612 3.9408,8.8020 8.8020 8.8020c 4.8612,0.0000 8.8020,-3.9408 8.8020 -8.8020Z"/></g><g stroke-linejoin="miter" stroke-opacity="1.0" fill-opacity="0.0" stroke="rgb(0,0,0)" stroke-width="1.6949803642543544" fill="rgb(0,0,0)" stroke-linecap="butt" stroke-miterlimit="10.0"><path d="M 400.0000,440.0978 l -0.0000,-391.1980 h -391.1980 l -0.0000,391.1980 Z"/></g></svg>