<?xml version="1.0" encoding="UTF-8"?>
<!DOCTYPE svg PUBLIC "-//W3C//DTD SVG 1.1//EN"
    "http://www.w3.org/Graphics/SVG/1.1/DTD/svg11.dtd"><svg stroke="rgb(0,0,0)" xmlns="http://www.w3.org/2000/svg" font-size="1" width="400.0000" stroke-opacity="1" xmlns:xlink="http://www.w3.org/1999/xlink" viewBox="0.0 0.0 400.0 166.66669444187502" height="166.6667" version="1.1"><defs></defs><g fill="rgb(0,0,0)" stroke="rgb(0,0,0)" stroke-linecap="butt" stroke-width="1.0327956450469764" stroke-miterlimit="10.0" fill-opacity="0.0" stroke-opacity="1.0" stroke-linejoin="miter"><path d="M 283.3336,53.2831 c -8.3333,-0.0000 -8.3333,-11.6161 -16.6666 -11.6161M 283.3336,53.2831 c -8.3333,-0.0000 -8.3333,5.0505 -16.6666 5.0505M 283.3336,53.2831 c -8.3333,-0.0000 -8.3333,21.7171 -16.6666 21.7171M 283.3336,53.2831 c 8.3333,-0.0000 8.3333,-5.5050 16.6666 -5.5050M 283.3336,83.3336 c -8.3333,-0.0000 -8.3333,8.3333 -16.6666 8.3333M 283.3336,83.3336 c 8.3333,-0.0000 8.3333,-17.7777 16.6666 -17.7777M 283.3336,83.3336 c 8.3333,-0.0000 8.3333,-0.0000 16.6666 -0.0000M 283.3336,113.3840 c -8.3333,-0.0000 -8.3333,-5.0505 -16.6666 -5.0505M 283.3336,113.3840 c -8.3333,-0.0000 -8.3333,11.6161 -16.6666 11.6161M 283.3336,113.3840 c 8.3333,-0.0000 8.3333,-12.2727 16.6666 -12.2727M 283.3336,113.3840 c 8.3333,-0.0000 8.3333,5.5050 16.6666 5.5050M 316.6669,57.0178 c -8.3333,-0.0000 -8.3333,-9.2397 -16.6666 -9.2397M 316.6669,57.0178 c -8.3333,-0.0000 -8.3333,8.5380 -16.6666 8.5380M 316.6669,57.0178 c 8.3333,-0.0000 8.3333,0.3899 16.6666 0.3899M 350.0001,57.8434 c -8.3333,-0.0000 -8.3333,-0.4357 -16.6666 -0.4357M 350.0001,57.8434 c 8.3333,-0.0000 8.3333,0.4902 16.6666 0.4902M 300.0002,118.8890 c 33.3333,-0.0000 33.3333,-27.2222 66.6665 -27.2222M 300.0002,101.1113 c 33.3333,-0.0000 33.3333,-26.1110 66.6665 -26.1110M 300.0002,83.3336 c 33.3333,-0.0000 33.3333,24.9999 66.6665 24.9999"/></g><g fill="rgb(0,0,0)" stroke="rgb(0,0,0)" stroke-linecap="butt" stroke-width="1.0327956450469764" stroke-miterlimit="10.0" fill-opacity="0.0" stroke-opacity="1.0" stroke-linejoin="miter"><path d="M 150.0000,83.3328 l -0.0003,0.0007 M 150.0000,33.3333 l -0.0003,0.0004 M 183.3332,38.8891 l -0.0003,0.0001 M 183.3332,56.6668 l -0.0003,0.0005 M 166.6663,53.2832 c -2.0833,0.6536 -3.6458,0.3511 -4.9479 -0.4938c -1.3021,-0.9244 -2.3437,-2.4091 -3.3854 -3.9766c -1.0417,-1.6501 -2.0833,-3.3823 -3.3854 -4.7159c -1.3021,-1.4103 -2.8646,-2.4018 -4.9479 -2.4298M 166.6663,53.2832 c -8.3333,2.5746 -8.3333,2.5746 -16.6666 5.0504M 166.6663,53.2832 c -2.0833,0.6536 -3.6458,1.9277 -4.9479 3.5765c -1.3021,1.7232 -2.3437,3.8433 -3.3854 6.0432c -1.0417,2.2793 -2.0833,4.6377 -3.3854 6.7499c -1.3021,2.1843 -2.8646,4.0987 -4.9479 5.3474M 166.6663,53.2832 c 8.3333,-2.6876 8.3333,-2.6876 16.6666 -5.5050M 150.0000,100.0000 l -0.0003,0.0002 M 150.0000,83.3332 l -0.0003,0.0004 M 183.3332,56.6666 l -0.0003,0.0006 M 183.3332,92.2221 l -0.0003,0.0004 M 166.6663,83.3337 c -8.3333,4.2270 -8.3333,4.2270 -16.6666 8.3332M 166.6663,83.3337 c 4.1667,-2.1641 6.2500,-5.0934 8.3333 -8.1844c 2.0833,-3.2555 4.1667,-6.6782 8.3333 -9.5931M 166.6663,83.3337 c 4.1667,-2.1641 6.2500,-1.4261 8.3333 -0.5456c 2.0833,1.0252 4.1667,2.1971 8.3333 0.5457M 150.0000,133.3331 l -0.0003,0.0004 M 150.0000,99.9998 l -0.0003,0.0004 M 183.3332,92.2221 l -0.0003,0.0004 M 183.3332,127.7775 l -0.0003,0.0004 M 166.6663,113.3840 c -4.1667,0.8291 -6.2500,-0.8800 -8.3333 -2.5747c -2.0833,-1.6806 -4.1667,-3.3476 -8.3333 -2.4759M 166.6663,113.3840 c -4.1667,0.8291 -6.2500,3.3629 -8.3333 5.8794c -2.0833,2.4997 -4.1667,4.9831 -8.3333 5.7367M 166.6663,113.3840 c 4.1667,-0.8354 6.2500,-3.4288 8.3333 -6.0425c 2.0833,-2.6349 4.1667,-5.2918 8.3333 -6.2301M 166.6663,113.3840 c 4.1667,-0.8354 6.2500,0.9176 8.3333 2.6876c 2.0833,1.7875 4.1667,3.5932 8.3333 2.8175M 183.3335,74.4443 l -0.0003,0.0004 M 183.3335,38.8889 l -0.0003,0.0003 M 216.6668,44.4445 l -0.0003,0.0002 M 216.6668,70.3704 l -0.0003,0.0003 M 199.9998,57.0178 c -4.1667,-0.0911 -6.2500,-2.1679 -8.3333 -4.3199c -2.0833,-2.2274 -4.1667,-4.5304 -8.3333 -4.9199M 199.9998,57.0178 c -4.1667,-0.0911 -6.2500,1.8963 -8.3333 3.9600c -2.0833,2.1403 -4.1667,4.3573 -8.3333 4.5780M 199.9998,57.0178 c 8.3333,0.1897 8.3333,0.1897 16.6666 0.3899M 216.6671,70.3703 l -0.0003,0.0003 M 216.6671,44.4446 l -0.0003,0.0002 M 250.0004,50.0002 l -0.0003,0.0001 M 250.0004,66.6668 l -0.0003,0.0002 M 233.3334,57.8434 c -8.3333,-0.2241 -8.3333,-0.2241 -16.6666 -0.4357M 233.3334,57.8434 c 8.3333,0.2377 8.3333,0.2377 16.6666 0.4902M 183.3339,127.7773 l -0.0007,0.0006 M 183.3339,74.4441 l -0.0007,0.0006 M 250.0004,66.6664 l -0.0007,0.0006 M 250.0004,116.6663 l -0.0007,0.0006 M 183.3332,118.8890 c 8.3333,-1.3319 14.5833,-3.4273 19.7916 -5.8922c 5.2083,-2.4485 9.3750,-5.2626 13.5416 -8.0583c 4.1667,-2.7767 8.3333,-5.5335 13.5416 -7.8846c 5.2083,-2.3289 11.4583,-4.2506 19.7916 -5.3870M 183.3332,101.1113 c 8.3333,-1.2179 14.5833,-3.2239 19.7916 -5.6117c 5.2083,-2.3687 9.3750,-5.1169 13.5416 -7.8450c 4.1667,-2.7071 8.3333,-5.3924 13.5416 -7.6511c 5.2083,-2.2331 11.4583,-4.0351 19.7916 -5.0031M 183.3332,83.3336 c 8.3333,-1.1040 14.5833,0.2746 19.7916 2.8707c 5.2083,2.5723 9.3750,6.3474 13.5416 10.0923c 4.1667,3.7135 8.3333,7.3942 13.5416 9.8154c 5.2083,2.3888 11.4583,3.5263 19.7916 2.2216"/></g><g fill="rgb(0,0,0)" stroke="rgb(0,0,0)" stroke-linecap="butt" stroke-width="1.0327956450469764" stroke-miterlimit="10.0" fill-opacity="0.0" stroke-opacity="1.0" stroke-linejoin="miter"><path d="M 49.9999,53.2831 c -8.3333,-0.0000 -8.3333,-11.6161 -16.6666 -11.6161M 49.9999,53.2831 c -8.3333,-0.0000 -8.3333,5.0505 -16.6666 5.0505M 49.9999,53.2831 c -8.3333,-0.0000 -8.3333,21.7171 -16.6666 21.7171M 49.9999,53.2831 c 8.3333,-0.0000 8.3333,-5.5050 16.6666 -5.5050M 49.9999,83.3336 c -8.3333,-0.0000 -8.3333,8.3333 -16.6666 8.3333M 49.9999,83.3336 c 8.3333,-0.0000 8.3333,-17.7777 16.6666 -17.7777M 49.9999,83.3336 c 8.3333,-0.0000 8.3333,-0.0000 16.6666 -0.0000M 49.9999,113.3840 c -8.3333,-0.0000 -8.3333,-5.0505 -16.6666 -5.0505M 49.9999,113.3840 c -8.3333,-0.0000 -8.3333,11.6161 -16.6666 11.6161M 49.9999,113.3840 c 8.3333,-0.0000 8.3333,-12.2727 16.6666 -12.2727M 49.9999,113.3840 c 8.3333,-0.0000 8.3333,5.5050 16.6666 5.5050M 83.3331,57.0178 c -8.3333,-0.0000 -8.3333,-9.2397 -16.6666 -9.2397M 83.3331,57.0178 c -8.3333,-0.0000 -8.3333,8.5380 -16.6666 8.5380M 83.3331,57.0178 c 8.3333,-0.0000 8.3333,0.3899 16.6666 0.3899M 116.6664,57.8434 c -8.3333,-0.0000 -8.3333,-0.4357 -16.6666 -0.4357M 116.6664,57.8434 c 8.3333,-0.0000 8.3333,0.4902 16.6666 0.4902M 66.6665,118.8890 c 33.3333,-0.0000 33.3333,-27.2222 66.6665 -27.2222M 66.6665,101.1113 c 33.3333,-0.0000 33.3333,-26.1110 66.6665 -26.1110M 66.6665,83.3336 c 33.3333,-0.0000 33.3333,24.9999 66.6665 24.9999"/></g><g fill="rgb(255,255,255)" stroke="rgb(0,0,0)" stroke-linecap="butt" stroke-width="1.0327956450469764" stroke-miterlimit="10.0" fill-opacity="1.0" stroke-opacity="1.0" stroke-linejoin="miter"><path d="M 121.6664,65.3434 l -0.0000,-15.0000 h -10.0000 l -0.0000,15.0000 Z"/></g><g fill="rgb(255,255,255)" stroke="rgb(0,0,0)" stroke-linecap="butt" stroke-width="1.0327956450469764" stroke-miterlimit="10.0" fill-opacity="1.0" stroke-opacity="1.0" stroke-linejoin="miter"><path d="M 88.3331,64.5178 l -0.0000,-15.0000 h -10.0000 l -0.0000,15.0000 Z"/></g><g fill="rgb(255,255,255)" stroke="rgb(0,0,0)" stroke-linecap="butt" stroke-width="1.0327956450469764" stroke-miterlimit="10.0" fill-opacity="1.0" stroke-opacity="1.0" stroke-linejoin="miter"><path d="M 54.9999,120.8840 l -0.0000,-15.0000 h -10.0000 l -0.0000,15.0000 Z"/></g><g fill="rgb(255,255,255)" stroke="rgb(0,0,0)" stroke-linecap="butt" stroke-width="1.0327956450469764" stroke-miterlimit="10.0" fill-opacity="1.0" stroke-opacity="1.0" stroke-linejoin="miter"><path d="M 54.9999,90.8336 l -0.0000,-15.0000 h -10.0000 l -0.0000,15.0000 Z"/></g><g fill="rgb(255,255,255)" stroke="rgb(0,0,0)" stroke-linecap="butt" stroke-width="1.0327956450469764" stroke-miterlimit="10.0" fill-opacity="1.0" stroke-opacity="1.0" stroke-linejoin="miter"><path d="M 54.9999,60.7831 l -0.0000,-15.0000 h -10.0000 l -0.0000,15.0000 Z"/></g><g fill="rgb(0,0,0)" stroke="rgb(0,0,0)" stroke-linecap="butt" stroke-width="1.0327956450469764" font-size="8.333312500052083px" stroke-miterlimit="10.0" fill-opacity="1.0" stroke-opacity="1.0" stroke-linejoin="miter"><text dominant-baseline="middle" stroke="none" transform="matrix(1.0000,0.0000,0.0000,1.0000,133.3330,106.2502)" text-anchor="middle">c</text></g><g fill="rgb(0,0,0)" stroke="rgb(0,0,0)" stroke-linecap="butt" stroke-width="1.0327956450469764" font-size="8.333312500052083px" stroke-miterlimit="10.0" fill-opacity="1.0" stroke-opacity="1.0" stroke-linejoin="miter"><text dominant-baseline="middle" stroke="none" transform="matrix(1.0000,0.0000,0.0000,1.0000,133.3330,89.5836)" text-anchor="middle">e</text></g><g fill="rgb(0,0,0)" stroke="rgb(0,0,0)" stroke-linecap="butt" stroke-width="1.0327956450469764" font-size="8.333312500052083px" stroke-miterlimit="10.0" fill-opacity="1.0" stroke-opacity="1.0" stroke-linejoin="miter"><text dominant-baseline="middle" stroke="none" transform="matrix(1.0000,0.0000,0.0000,1.0000,133.3330,72.9169)" text-anchor="middle">d</text></g><g fill="rgb(0,0,0)" stroke="rgb(0,0,0)" stroke-linecap="butt" stroke-width="1.0327956450469764" font-size="8.333312500052083px" stroke-miterlimit="10.0" fill-opacity="1.0" stroke-opacity="1.0" stroke-linejoin="miter"><text dominant-baseline="middle" stroke="none" transform="matrix(1.0000,0.0000,0.0000,1.0000,133.3330,56.2503)" text-anchor="middle">g</text></g><g fill="rgb(0,0,0)" stroke="rgb(0,0,0)" stroke-linecap="butt" stroke-width="1.0327956450469764" font-size="8.333312500052083px" stroke-miterlimit="10.0" fill-opacity="1.0" stroke-opacity="1.0" stroke-linejoin="miter"><text dominant-baseline="middle" stroke="none" transform="matrix(1.0000,0.0000,0.0000,1.0000,116.6664,59.9268)" text-anchor="middle">4</text></g><g fill="rgb(0,0,0)" stroke="rgb(0,0,0)" stroke-linecap="butt" stroke-width="1.0327956450469764" font-size="8.333312500052083px" stroke-miterlimit="10.0" fill-opacity="1.0" stroke-opacity="1.0" stroke-linejoin="miter"><text dominant-baseline="middle" stroke="none" transform="matrix(1.0000,0.0000,0.0000,1.0000,99.9998,55.3244)" text-anchor="middle">f</text></g><g fill="rgb(0,0,0)" stroke="rgb(0,0,0)" stroke-linecap="butt" stroke-width="1.0327956450469764" font-size="8.333312500052083px" stroke-miterlimit="10.0" fill-opacity="1.0" stroke-opacity="1.0" stroke-linejoin="miter"><text dominant-baseline="middle" stroke="none" transform="matrix(1.0000,0.0000,0.0000,1.0000,83.3331,59.1012)" text-anchor="middle">3</text></g><g fill="rgb(0,0,0)" stroke="rgb(0,0,0)" stroke-linecap="butt" stroke-width="1.0327956450469764" font-size="8.333312500052083px" stroke-miterlimit="10.0" fill-opacity="1.0" stroke-opacity="1.0" stroke-linejoin="miter"><text dominant-baseline="middle" stroke="none" transform="matrix(1.0000,0.0000,0.0000,1.0000,66.6665,116.8057)" text-anchor="middle">e</text></g><g fill="rgb(0,0,0)" stroke="rgb(0,0,0)" stroke-linecap="butt" stroke-width="1.0327956450469764" font-size="8.333312500052083px" stroke-miterlimit="10.0" fill-opacity="1.0" stroke-opacity="1.0" stroke-linejoin="miter"><text dominant-baseline="middle" stroke="none" transform="matrix(1.0000,0.0000,0.0000,1.0000,66.6665,99.0280)" text-anchor="middle">d</text></g><g fill="rgb(0,0,0)" stroke="rgb(0,0,0)" stroke-linecap="butt" stroke-width="1.0327956450469764" font-size="8.333312500052083px" stroke-miterlimit="10.0" fill-opacity="1.0" stroke-opacity="1.0" stroke-linejoin="miter"><text dominant-baseline="middle" stroke="none" transform="matrix(1.0000,0.0000,0.0000,1.0000,33.3333,122.9168)" text-anchor="middle">x6</text></g><g fill="rgb(0,0,0)" stroke="rgb(0,0,0)" stroke-linecap="butt" stroke-width="1.0327956450469764" font-size="8.333312500052083px" stroke-miterlimit="10.0" fill-opacity="1.0" stroke-opacity="1.0" stroke-linejoin="miter"><text dominant-baseline="middle" stroke="none" transform="matrix(1.0000,0.0000,0.0000,1.0000,33.3333,106.2502)" text-anchor="middle">x5</text></g><g fill="rgb(0,0,0)" stroke="rgb(0,0,0)" stroke-linecap="butt" stroke-width="1.0327956450469764" font-size="8.333312500052083px" stroke-miterlimit="10.0" fill-opacity="1.0" stroke-opacity="1.0" stroke-linejoin="miter"><text dominant-baseline="middle" stroke="none" transform="matrix(1.0000,0.0000,0.0000,1.0000,49.9999,115.4673)" text-anchor="middle">2</text></g><g fill="rgb(0,0,0)" stroke="rgb(0,0,0)" stroke-linecap="butt" stroke-width="1.0327956450469764" font-size="8.333312500052083px" stroke-miterlimit="10.0" fill-opacity="1.0" stroke-opacity="1.0" stroke-linejoin="miter"><text dominant-baseline="middle" stroke="none" transform="matrix(1.0000,0.0000,0.0000,1.0000,66.6665,81.2502)" text-anchor="middle">c</text></g><g fill="rgb(0,0,0)" stroke="rgb(0,0,0)" stroke-linecap="butt" stroke-width="1.0327956450469764" font-size="8.333312500052083px" stroke-miterlimit="10.0" fill-opacity="1.0" stroke-opacity="1.0" stroke-linejoin="miter"><text dominant-baseline="middle" stroke="none" transform="matrix(1.0000,0.0000,0.0000,1.0000,66.6665,63.4725)" text-anchor="middle">b</text></g><g fill="rgb(0,0,0)" stroke="rgb(0,0,0)" stroke-linecap="butt" stroke-width="1.0327956450469764" font-size="8.333312500052083px" stroke-miterlimit="10.0" fill-opacity="1.0" stroke-opacity="1.0" stroke-linejoin="miter"><text dominant-baseline="middle" stroke="none" transform="matrix(1.0000,0.0000,0.0000,1.0000,33.3333,89.5836)" text-anchor="middle">x4</text></g><g fill="rgb(0,0,0)" stroke="rgb(0,0,0)" stroke-linecap="butt" stroke-width="1.0327956450469764" font-size="8.333312500052083px" stroke-miterlimit="10.0" fill-opacity="1.0" stroke-opacity="1.0" stroke-linejoin="miter"><text dominant-baseline="middle" stroke="none" transform="matrix(1.0000,0.0000,0.0000,1.0000,49.9999,85.4169)" text-anchor="middle">1</text></g><g fill="rgb(0,0,0)" stroke="rgb(0,0,0)" stroke-linecap="butt" stroke-width="1.0327956450469764" font-size="8.333312500052083px" stroke-miterlimit="10.0" fill-opacity="1.0" stroke-opacity="1.0" stroke-linejoin="miter"><text dominant-baseline="middle" stroke="none" transform="matrix(1.0000,0.0000,0.0000,1.0000,66.6665,45.6948)" text-anchor="middle">a</text></g><g fill="rgb(0,0,0)" stroke="rgb(0,0,0)" stroke-linecap="butt" stroke-width="1.0327956450469764" font-size="8.333312500052083px" stroke-miterlimit="10.0" fill-opacity="1.0" stroke-opacity="1.0" stroke-linejoin="miter"><text dominant-baseline="middle" stroke="none" transform="matrix(1.0000,0.0000,0.0000,1.0000,33.3333,72.9169)" text-anchor="middle">x3</text></g><g fill="rgb(0,0,0)" stroke="rgb(0,0,0)" stroke-linecap="butt" stroke-width="1.0327956450469764" font-size="8.333312500052083px" stroke-miterlimit="10.0" fill-opacity="1.0" stroke-opacity="1.0" stroke-linejoin="miter"><text dominant-baseline="middle" stroke="none" transform="matrix(1.0000,0.0000,0.0000,1.0000,33.3333,56.2503)" text-anchor="middle">x2</text></g><g fill="rgb(0,0,0)" stroke="rgb(0,0,0)" stroke-linecap="butt" stroke-width="1.0327956450469764" font-size="8.333312500052083px" stroke-miterlimit="10.0" fill-opacity="1.0" stroke-opacity="1.0" stroke-linejoin="miter"><text dominant-baseline="middle" stroke="none" transform="matrix(1.0000,0.0000,0.0000,1.0000,33.3333,39.5837)" text-anchor="middle">x1</text></g><g fill="rgb(0,0,0)" stroke="rgb(0,0,0)" stroke-linecap="butt" stroke-width="1.0327956450469764" font-size="8.333312500052083px" stroke-miterlimit="10.0" fill-opacity="1.0" stroke-opacity="1.0" stroke-linejoin="miter"><text dominant-baseline="middle" stroke="none" transform="matrix(1.0000,0.0000,0.0000,1.0000,49.9999,55.3665)" text-anchor="middle">0</text></g></svg>