<?xml version="1.0" encoding="UTF-8"?>
<!DOCTYPE svg PUBLIC "-//W3C//DTD SVG 1.1//EN"
    "http://www.w3.org/Graphics/SVG/1.1/DTD/svg11.dtd"><svg stroke="rgb(0,0,0)" xmlns="http://www.w3.org/2000/svg" font-size="1" width="400.0000" stroke-opacity="1" xmlns:xlink="http://www.w3.org/1999/xlink" viewBox="0.0 0.0 400.0 365.0" height="365.0000" version="1.1"><defs></defs><g fill="rgb(0,0,0)" stroke="rgb(0,0,0)" stroke-linecap="butt" stroke-width="1.528397853963424" stroke-miterlimit="10.0" fill-opacity="0.0" stroke-opacity="1.0" stroke-linejoin="miter"><path d="M 120.0000,112.8788 c -20.0000,-0.0000 -20.0000,52.1212 -40.0000 52.1212M 120.0000,112.8788 c -20.0000,-0.0000 -20.0000,12.1212 -40.0000 12.1212M 120.0000,112.8788 c -20.0000,-0.0000 -20.0000,-27.8788 -40.0000 -27.8788M 120.0000,112.8788 c 20.0000,-0.0000 20.0000,-13.2121 40.0000 -13.2121M 120.0000,185.0000 c -20.0000,-0.0000 -20.0000,20.0000 -40.0000 20.0000M 120.0000,185.0000 c 20.0000,-0.0000 20.0000,-0.0000 40.0000 -0.0000M 120.0000,185.0000 c 20.0000,-0.0000 20.0000,-42.6667 40.0000 -42.6667M 120.0000,257.1212 c -20.0000,-0.0000 -20.0000,27.8788 -40.0000 27.8788M 120.0000,257.1212 c -20.0000,-0.0000 -20.0000,-12.1212 -40.0000 -12.1212M 120.0000,257.1212 c 20.0000,-0.0000 20.0000,13.2121 40.0000 13.2121M 120.0000,257.1212 c 20.0000,-0.0000 20.0000,-29.4545 40.0000 -29.4545M 200.0000,121.8421 c -20.0000,-0.0000 -20.0000,20.4912 -40.0000 20.4912M 200.0000,121.8421 c -20.0000,-0.0000 -20.0000,-22.1754 -40.0000 -22.1754M 200.0000,121.8421 c 20.0000,-0.0000 20.0000,0.9357 40.0000 0.9357M 280.0000,123.8235 c -20.0000,-0.0000 -20.0000,-1.0458 -40.0000 -1.0458M 280.0000,123.8235 c 20.0000,-0.0000 20.0000,1.1765 40.0000 1.1765M 160.0000,270.3333 c 80.0000,-0.0000 80.0000,-65.3333 160.0000 -65.3333M 160.0000,227.6667 c 80.0000,-0.0000 80.0000,-62.6667 160.0000 -62.6667M 160.0000,185.0000 c 80.0000,-0.0000 80.0000,60.0000 160.0000 60.0000"/></g><g fill="rgb(255,255,255)" stroke="rgb(0,0,0)" stroke-linecap="butt" stroke-width="1.528397853963424" stroke-miterlimit="10.0" fill-opacity="1.0" stroke-opacity="1.0" stroke-linejoin="miter"><path d="M 292.0000,141.8235 l -0.0000,-36.0000 h -24.0000 l -0.0000,36.0000 Z"/></g><g fill="rgb(255,255,255)" stroke="rgb(0,0,0)" stroke-linecap="butt" stroke-width="1.528397853963424" stroke-miterlimit="10.0" fill-opacity="1.0" stroke-opacity="1.0" stroke-linejoin="miter"><path d="M 212.0000,139.8421 l -0.0000,-36.0000 h -24.0000 l -0.0000,36.0000 Z"/></g><g fill="rgb(255,255,255)" stroke="rgb(0,0,0)" stroke-linecap="butt" stroke-width="1.528397853963424" stroke-miterlimit="10.0" fill-opacity="1.0" stroke-opacity="1.0" stroke-linejoin="miter"><path d="M 132.0000,275.1212 l -0.0000,-36.0000 h -24.0000 l -0.0000,36.0000 Z"/></g><g fill="rgb(255,255,255)" stroke="rgb(0,0,0)" stroke-linecap="butt" stroke-width="1.528397853963424" stroke-miterlimit="10.0" fill-opacity="1.0" stroke-opacity="1.0" stroke-linejoin="miter"><path d="M 132.0000,203.0000 l -0.0000,-36.0000 h -24.0000 l -0.0000,36.0000 Z"/></g><g fill="rgb(255,255,255)" stroke="rgb(0,0,0)" stroke-linecap="butt" stroke-width="1.528397853963424" stroke-miterlimit="10.0" fill-opacity="1.0" stroke-opacity="1.0" stroke-linejoin="miter"><path d="M 132.0000,130.8788 l -0.0000,-36.0000 h -24.0000 l -0.0000,36.0000 Z"/></g><g fill="rgb(0,0,0)" stroke="rgb(0,0,0)" stroke-linecap="butt" stroke-width="1.528397853963424" font-size="20.0px" stroke-miterlimit="10.0" fill-opacity="1.0" stroke-opacity="1.0" stroke-linejoin="miter"><text dominant-baseline="middle" stroke="none" transform="matrix(1.0000,0.0000,0.0000,1.0000,240.0000,221.1111)" text-anchor="middle"></text></g><g fill="rgb(0,0,0)" stroke="rgb(0,0,0)" stroke-linecap="butt" stroke-width="1.528397853963424" font-size="20.0px" stroke-miterlimit="10.0" fill-opacity="1.0" stroke-opacity="1.0" stroke-linejoin="miter"><text dominant-baseline="middle" stroke="none" transform="matrix(1.0000,0.0000,0.0000,1.0000,280.0000,128.8235)" text-anchor="middle">4</text></g><g fill="rgb(0,0,0)" stroke="rgb(0,0,0)" stroke-linecap="butt" stroke-width="1.528397853963424" font-size="20.0px" stroke-miterlimit="10.0" fill-opacity="1.0" stroke-opacity="1.0" stroke-linejoin="miter"><text dominant-baseline="middle" stroke="none" transform="matrix(1.0000,0.0000,0.0000,1.0000,200.0000,126.8421)" text-anchor="middle">3</text></g><g fill="rgb(0,0,0)" stroke="rgb(0,0,0)" stroke-linecap="butt" stroke-width="1.528397853963424" font-size="20.0px" stroke-miterlimit="10.0" fill-opacity="1.0" stroke-opacity="1.0" stroke-linejoin="miter"><text dominant-baseline="middle" stroke="none" transform="matrix(1.0000,0.0000,0.0000,1.0000,120.0000,262.1212)" text-anchor="middle">2</text></g><g fill="rgb(0,0,0)" stroke="rgb(0,0,0)" stroke-linecap="butt" stroke-width="1.528397853963424" font-size="20.0px" stroke-miterlimit="10.0" fill-opacity="1.0" stroke-opacity="1.0" stroke-linejoin="miter"><text dominant-baseline="middle" stroke="none" transform="matrix(1.0000,0.0000,0.0000,1.0000,120.0000,190.0000)" text-anchor="middle">1</text></g><g fill="rgb(0,0,0)" stroke="rgb(0,0,0)" stroke-linecap="butt" stroke-width="1.528397853963424" font-size="20.0px" stroke-miterlimit="10.0" fill-opacity="1.0" stroke-opacity="1.0" stroke-linejoin="miter"><text dominant-baseline="middle" stroke="none" transform="matrix(1.0000,0.0000,0.0000,1.0000,160.0000,94.6667)" text-anchor="middle">d</text></g><g fill="rgb(0,0,0)" stroke="rgb(0,0,0)" stroke-linecap="butt" stroke-width="1.528397853963424" font-size="20.0px" stroke-miterlimit="10.0" fill-opacity="1.0" stroke-opacity="1.0" stroke-linejoin="miter"><text dominant-baseline="middle" stroke="none" transform="matrix(1.0000,0.0000,0.0000,1.0000,80.0000,80.0000)" text-anchor="middle">c</text></g><g fill="rgb(0,0,0)" stroke="rgb(0,0,0)" stroke-linecap="butt" stroke-width="1.528397853963424" font-size="20.0px" stroke-miterlimit="10.0" fill-opacity="1.0" stroke-opacity="1.0" stroke-linejoin="miter"><text dominant-baseline="middle" stroke="none" transform="matrix(1.0000,0.0000,0.0000,1.0000,80.0000,120.0000)" text-anchor="middle">b</text></g><g fill="rgb(0,0,0)" stroke="rgb(0,0,0)" stroke-linecap="butt" stroke-width="1.528397853963424" font-size="20.0px" stroke-miterlimit="10.0" fill-opacity="1.0" stroke-opacity="1.0" stroke-linejoin="miter"><text dominant-baseline="middle" stroke="none" transform="matrix(1.0000,0.0000,0.0000,1.0000,80.0000,160.0000)" text-anchor="middle">a</text></g><g fill="rgb(0,0,0)" stroke="rgb(0,0,0)" stroke-linecap="butt" stroke-width="1.528397853963424" font-size="20.0px" stroke-miterlimit="10.0" fill-opacity="1.0" stroke-opacity="1.0" stroke-linejoin="miter"><text dominant-baseline="middle" stroke="none" transform="matrix(1.0000,0.0000,0.0000,1.0000,120.0000,117.8788)" text-anchor="middle">0</text></g></svg>