<?xml version="1.0" encoding="UTF-8"?>
<!DOCTYPE svg PUBLIC "-//W3C//DTD SVG 1.1//EN"
    "http://www.w3.org/Graphics/SVG/1.1/DTD/svg11.dtd"><svg xmlns="http://www.w3.org/2000/svg" height="400.0000" stroke-opacity="1" viewBox="0.0 0.0 400.0 400.0" font-size="1" width="400.0000" xmlns:xlink="http://www.w3.org/1999/xlink" stroke="rgb(0,0,0)" version="1.1"><defs></defs><g stroke-linejoin="miter" stroke-opacity="1.0" fill-opacity="0.0" stroke="rgb(0,0,0)" stroke-width="1.6000000000000003" fill="rgb(0,0,0)" stroke-linecap="butt" stroke-miterlimit="10.0"><path d="M 200.0000,233.3333 l -0.0000,-133.3333 M 200.0000,100.0000 h -100.0000 M 100.0000,100.0000 l -0.0000,100.0000 M 100.0000,200.0000 l 100.0000,33.3333 M 200.0000,300.0000 l -0.0000,-66.6667 M 200.0000,233.3333 l -100.0000,-33.3333 M 100.0000,200.0000 l -0.0000,100.0000 M 100.0000,300.0000 h 100.0000 M 300.0000,200.0000 l -0.0000,-100.0000 M 300.0000,100.0000 l -100.0000,0.0000 M 200.0000,100.0000 l -0.0000,66.6667 M 200.0000,166.6667 l 100.0000,33.3333 M 300.0000,300.0000 l -0.0000,-100.0000 M 300.0000,200.0000 l -100.0000,-33.3333 M 200.0000,166.6667 l -0.0000,133.3333 M 200.0000,300.0000 h 100.0000 "/></g></svg>