<?xml version="1.0" encoding="UTF-8"?>
<!DOCTYPE svg PUBLIC "-//W3C//DTD SVG 1.1//EN"
    "http://www.w3.org/Graphics/SVG/1.1/DTD/svg11.dtd"><svg stroke="rgb(0,0,0)" xmlns="http://www.w3.org/2000/svg" font-size="1" width="400.0000" stroke-opacity="1" xmlns:xlink="http://www.w3.org/1999/xlink" viewBox="0.0 0.0 400.0 388.89336016096587" height="388.8934" version="1.1"><defs></defs><g fill="rgb(0,0,0)" stroke="rgb(0,0,0)" stroke-linecap="butt" stroke-width="1.5776303448622497" stroke-miterlimit="10.0" fill-opacity="0.0" stroke-opacity="1.0" stroke-linejoin="miter"><path d="M 140.2414,126.1167 c -29.8793,-0.0000 -29.8793,28.2495 -59.7586 28.2495M 140.2414,126.1167 c -29.8793,-0.0000 -29.8793,-19.5573 -59.7586 -19.5573M 140.2414,126.1167 c 29.8793,-0.0000 29.8793,16.2978 59.7586 16.2978M 140.2414,126.1167 c 29.8793,-0.0000 29.8793,-23.5412 59.7586 -23.5412M 140.2414,202.1730 c -29.8793,-0.0000 -29.8793,-0.0000 -59.7586 -0.0000M 140.2414,202.1730 c 29.8793,-0.0000 29.8793,19.9195 59.7586 19.9195M 140.2414,202.1730 c 29.8793,-0.0000 29.8793,-19.9195 59.7586 -19.9195M 140.2414,278.2294 c -29.8793,-0.0000 -29.8793,19.5573 -59.7586 19.5573M 140.2414,278.2294 c -29.8793,-0.0000 -29.8793,-28.2495 -59.7586 -28.2495M 140.2414,278.2294 c 29.8793,-0.0000 29.8793,23.5412 59.7586 23.5412M 140.2414,278.2294 c 29.8793,-0.0000 29.8793,-16.2978 59.7586 -16.2978M 259.7586,98.5915 c -29.8793,-0.0000 -29.8793,3.9839 -59.7586 3.9839M 259.7586,98.5915 c 29.8793,-0.0000 29.8793,-2.6559 59.7586 -2.6559M 259.7586,170.3018 c -29.8793,-0.0000 -29.8793,11.9517 -59.7586 11.9517M 259.7586,170.3018 c -29.8793,-0.0000 -29.8793,-27.8873 -59.7586 -27.8873M 259.7586,170.3018 c 29.8793,-0.0000 29.8793,58.4306 59.7586 58.4306M 259.7586,170.3018 c 29.8793,-0.0000 29.8793,31.8712 59.7586 31.8712M 259.7586,170.3018 c 29.8793,-0.0000 29.8793,5.3119 59.7586 5.3119M 259.7586,170.3018 c 29.8793,-0.0000 29.8793,-21.2475 59.7586 -21.2475M 259.7586,170.3018 c 29.8793,-0.0000 29.8793,-47.8068 59.7586 -47.8068M 200.0000,301.7706 c 59.7586,-0.0000 59.7586,-19.9195 119.5171 -19.9195M 200.0000,261.9316 c 59.7586,-0.0000 59.7586,-6.6398 119.5171 -6.6398M 200.0000,222.0926 c 59.7586,-0.0000 59.7586,86.3179 119.5171 86.3179"/></g><g fill="rgb(255,255,255)" stroke="rgb(0,0,0)" stroke-linecap="butt" stroke-width="1.5776303448622497" stroke-miterlimit="10.0" fill-opacity="1.0" stroke-opacity="1.0" stroke-linejoin="miter"><path d="M 271.8310,188.4105 l -0.0000,-36.2173 h -24.1449 l -0.0000,36.2173 Z"/></g><g fill="rgb(255,255,255)" stroke="rgb(0,0,0)" stroke-linecap="butt" stroke-width="1.5776303448622497" stroke-miterlimit="10.0" fill-opacity="1.0" stroke-opacity="1.0" stroke-linejoin="miter"><path d="M 271.8310,116.7002 l -0.0000,-36.2173 h -24.1449 l -0.0000,36.2173 Z"/></g><g fill="rgb(255,255,255)" stroke="rgb(0,0,0)" stroke-linecap="butt" stroke-width="1.5776303448622497" stroke-miterlimit="10.0" fill-opacity="1.0" stroke-opacity="1.0" stroke-linejoin="miter"><path d="M 152.3139,296.3380 l -0.0000,-36.2173 h -24.1449 l -0.0000,36.2173 Z"/></g><g fill="rgb(255,255,255)" stroke="rgb(0,0,0)" stroke-linecap="butt" stroke-width="1.5776303448622497" stroke-miterlimit="10.0" fill-opacity="1.0" stroke-opacity="1.0" stroke-linejoin="miter"><path d="M 152.3139,220.2817 l -0.0000,-36.2173 h -24.1449 l -0.0000,36.2173 Z"/></g><g fill="rgb(255,255,255)" stroke="rgb(0,0,0)" stroke-linecap="butt" stroke-width="1.5776303448622497" stroke-miterlimit="10.0" fill-opacity="1.0" stroke-opacity="1.0" stroke-linejoin="miter"><path d="M 152.3139,144.2254 l -0.0000,-36.2173 h -24.1449 l -0.0000,36.2173 Z"/></g><g fill="rgb(0,0,0)" stroke="rgb(0,0,0)" stroke-linecap="butt" stroke-width="1.5776303448622497" font-size="20.12072434607646px" stroke-miterlimit="10.0" fill-opacity="1.0" stroke-opacity="1.0" stroke-linejoin="miter"><text dominant-baseline="middle" stroke="none" transform="matrix(1.0000,0.0000,0.0000,1.0000,259.7586,278.9135)" text-anchor="middle"></text></g><g fill="rgb(0,0,0)" stroke="rgb(0,0,0)" stroke-linecap="butt" stroke-width="1.5776303448622497" font-size="20.12072434607646px" stroke-miterlimit="10.0" fill-opacity="1.0" stroke-opacity="1.0" stroke-linejoin="miter"><text dominant-baseline="middle" stroke="none" transform="matrix(1.0000,0.0000,0.0000,1.0000,259.7586,175.3320)" text-anchor="middle">4</text></g><g fill="rgb(0,0,0)" stroke="rgb(0,0,0)" stroke-linecap="butt" stroke-width="1.5776303448622497" font-size="20.12072434607646px" stroke-miterlimit="10.0" fill-opacity="1.0" stroke-opacity="1.0" stroke-linejoin="miter"><text dominant-baseline="middle" stroke="none" transform="matrix(1.0000,0.0000,0.0000,1.0000,259.7586,103.6217)" text-anchor="middle">3</text></g><g fill="rgb(0,0,0)" stroke="rgb(0,0,0)" stroke-linecap="butt" stroke-width="1.5776303448622497" font-size="20.12072434607646px" stroke-miterlimit="10.0" fill-opacity="1.0" stroke-opacity="1.0" stroke-linejoin="miter"><text dominant-baseline="middle" stroke="none" transform="matrix(1.0000,0.0000,0.0000,1.0000,140.2414,283.2596)" text-anchor="middle">2</text></g><g fill="rgb(0,0,0)" stroke="rgb(0,0,0)" stroke-linecap="butt" stroke-width="1.5776303448622497" font-size="20.12072434607646px" stroke-miterlimit="10.0" fill-opacity="1.0" stroke-opacity="1.0" stroke-linejoin="miter"><text dominant-baseline="middle" stroke="none" transform="matrix(1.0000,0.0000,0.0000,1.0000,140.2414,207.2032)" text-anchor="middle">1</text></g><g fill="rgb(0,0,0)" stroke="rgb(0,0,0)" stroke-linecap="butt" stroke-width="1.5776303448622497" font-size="20.12072434607646px" stroke-miterlimit="10.0" fill-opacity="1.0" stroke-opacity="1.0" stroke-linejoin="miter"><text dominant-baseline="middle" stroke="none" transform="matrix(1.0000,0.0000,0.0000,1.0000,140.2414,131.1469)" text-anchor="middle">0</text></g></svg>