<?xml version="1.0" encoding="UTF-8"?>
<!DOCTYPE svg PUBLIC "-//W3C//DTD SVG 1.1//EN"
    "http://www.w3.org/Graphics/SVG/1.1/DTD/svg11.dtd"><svg viewBox="0.0 0.0 400.0 472.14285714285717" xmlns:xlink="http://www.w3.org/1999/xlink" xmlns="http://www.w3.org/2000/svg" width="400.0000" stroke="rgb(0,0,0)" font-size="1" stroke-opacity="1" height="472.1429" version="1.1"><defs></defs><g stroke-width="1.7383078800127112" stroke-linejoin="miter" fill-opacity="0.0" stroke="rgb(0,0,0)" stroke-opacity="1.0" fill="rgb(0,0,0)" stroke-linecap="butt" stroke-miterlimit="10.0"><path d="M 150.0000,156.7857 l -50.0000,-14.2857 M 150.0000,156.7857 l 50.0000,48.2143 M 150.0000,156.7857 l 50.0000,-26.7857 M 150.0000,263.9286 l -50.0000,-21.4286 M 150.0000,263.9286 l 50.0000,16.0714 M 150.0000,349.6429 l -50.0000,-7.1429 M 150.0000,349.6429 l 50.0000,5.3571 M 250.0000,122.5000 l -50.0000,7.5000 M 250.0000,122.5000 l 50.0000,-5.0000 M 250.0000,272.5000 l -50.0000,82.5000 M 250.0000,272.5000 l -50.0000,7.5000 M 250.0000,272.5000 l -50.0000,-67.5000 M 250.0000,272.5000 l 50.0000,95.0000 M 250.0000,272.5000 l 50.0000,45.0000 M 250.0000,272.5000 l 50.0000,-5.0000 M 250.0000,272.5000 l 50.0000,-55.0000 M 250.0000,272.5000 l 50.0000,-105.0000 "/></g><g stroke-width="1.7383078800127112" stroke-linejoin="miter" fill-opacity="1.0" stroke="rgb(0,0,0)" stroke-opacity="1.0" fill="rgb(255,255,255)" stroke-linecap="butt" stroke-miterlimit="10.0"><path d="M 265.0000,295.0000 l -0.0000,-45.0000 h -30.0000 l -0.0000,45.0000 Z"/></g><g stroke-width="1.7383078800127112" stroke-linejoin="miter" fill-opacity="1.0" stroke="rgb(0,0,0)" stroke-opacity="1.0" fill="rgb(255,255,255)" stroke-linecap="butt" stroke-miterlimit="10.0"><path d="M 265.0000,145.0000 l -0.0000,-45.0000 h -30.0000 l -0.0000,45.0000 Z"/></g><g stroke-width="1.7383078800127112" stroke-linejoin="miter" fill-opacity="1.0" stroke="rgb(0,0,0)" stroke-opacity="1.0" fill="rgb(255,255,255)" stroke-linecap="butt" stroke-miterlimit="10.0"><path d="M 165.0000,372.1429 l -0.0000,-45.0000 h -30.0000 l -0.0000,45.0000 Z"/></g><g stroke-width="1.7383078800127112" stroke-linejoin="miter" fill-opacity="1.0" stroke="rgb(0,0,0)" stroke-opacity="1.0" fill="rgb(255,255,255)" stroke-linecap="butt" stroke-miterlimit="10.0"><path d="M 165.0000,286.4286 l -0.0000,-45.0000 h -30.0000 l -0.0000,45.0000 Z"/></g><g stroke-width="1.7383078800127112" stroke-linejoin="miter" fill-opacity="1.0" stroke="rgb(0,0,0)" stroke-opacity="1.0" fill="rgb(255,255,255)" stroke-linecap="butt" stroke-miterlimit="10.0"><path d="M 165.0000,179.2857 l -0.0000,-45.0000 h -30.0000 l -0.0000,45.0000 Z"/></g><g stroke-width="1.7383078800127112" stroke-linejoin="miter" fill-opacity="1.0" stroke="rgb(0,0,0)" font-size="25.0px" stroke-opacity="1.0" fill="rgb(0,0,0)" stroke-linecap="butt" stroke-miterlimit="10.0"><text transform="matrix(1.0000,0.0000,0.0000,1.0000,250.0000,272.5000)" text-anchor="middle" stroke="none" dominant-baseline="middle">4</text></g><g stroke-width="1.7383078800127112" stroke-linejoin="miter" fill-opacity="1.0" stroke="rgb(0,0,0)" font-size="25.0px" stroke-opacity="1.0" fill="rgb(0,0,0)" stroke-linecap="butt" stroke-miterlimit="10.0"><text transform="matrix(1.0000,0.0000,0.0000,1.0000,250.0000,122.5000)" text-anchor="middle" stroke="none" dominant-baseline="middle">3</text></g><g stroke-width="1.7383078800127112" stroke-linejoin="miter" fill-opacity="1.0" stroke="rgb(0,0,0)" font-size="25.0px" stroke-opacity="1.0" fill="rgb(0,0,0)" stroke-linecap="butt" stroke-miterlimit="10.0"><text transform="matrix(1.0000,0.0000,0.0000,1.0000,150.0000,349.6429)" text-anchor="middle" stroke="none" dominant-baseline="middle">2</text></g><g stroke-width="1.7383078800127112" stroke-linejoin="miter" fill-opacity="1.0" stroke="rgb(0,0,0)" font-size="25.0px" stroke-opacity="1.0" fill="rgb(0,0,0)" stroke-linecap="butt" stroke-miterlimit="10.0"><text transform="matrix(1.0000,0.0000,0.0000,1.0000,150.0000,263.9286)" text-anchor="middle" stroke="none" dominant-baseline="middle">1</text></g><g stroke-width="1.7383078800127112" stroke-linejoin="miter" fill-opacity="1.0" stroke="rgb(0,0,0)" font-size="25.0px" stroke-opacity="1.0" fill="rgb(0,0,0)" stroke-linecap="butt" stroke-miterlimit="10.0"><text transform="matrix(1.0000,0.0000,0.0000,1.0000,150.0000,156.7857)" text-anchor="middle" stroke="none" dominant-baseline="middle">0</text></g></svg>